# xmcd CD database file
#
# Track frame offsets:
#	150
#	36136
#	66967
#	93764
#	118615
#	144530
#	171195
#	195910
#	217870
#	238372
#	265721
#	280466
#
# Disc length: 3787 seconds
#
# Revision: 3
# Processed by: cddbd v1.5.2PL0 Copyright (c) Steve Scherf et al.
# Submitted via: CDex 1.70beta2
#
DISCID=ab0ec90c
DTITLE=SOUND HOLIC - 東方的幻想四撃蹴
DYEAR=2006
DGENRE=東方アレンジ
TTITLE0=Intro&SDHC Sound Anthem
TTITLE1=Fate of 60 Years (Deep Xanadu Mix)
TTITLE2=zikee/Border of Life (Flowering Mix)
TTITLE3=Yassie/Final Master Double Spark!!
TTITLE4=Tarau/Magical China Express (Extend-T Mix)
TTITLE5=White and Red (Party Mix)
TTITLE6=Yu-ko/Luna Eclipse (Classical Edit)
TTITLE7=Sister Prismriver (Rainbow Edition)
TTITLE8=Dive into The Sky (Vocal Mix)
TTITLE9=Mont Saint Michel et Sa baie (Vocal Mix)
TTITLE10=Evolution Holic Meets Toho
TTITLE11=Outro
EXTD=SDHC-0002 YEAR: 2006
EXTT0=
EXTT1=
EXTT2=
EXTT3=
EXTT4=
EXTT5=
EXTT6=
EXTT7=
EXTT8=
EXTT9=
EXTT10=
EXTT11=
PLAYORDER=
